Coordinates
version=1
nRows=49
nColumns=12
inDegrees=yes

Units are S.I. units (second, meters, Newtons, ...)
Angles are in degrees

endheader
time	SC_y	SC_z	SC_x	AC_y	AC_z	AC_x	GH_y	GH_z	GH_yy	EL_x	PS_y
       0.0              -33.43         0.7148          9.477          58.15          -4.98          19.68         -29.33          -13.2          61.26          124.1          70.16
   0.01816              -33.43         0.7192          9.477          58.15          -4.98          19.68         -29.33          -13.2          61.24          124.1          70.16
   0.03631              -33.43         0.7238          9.477          58.15         -4.981          19.67         -29.33         -13.19          61.22          124.1          70.17
   0.05447              -33.44         0.7286          9.477          58.15         -4.982          19.67         -29.33         -13.19           61.2          124.1          70.17
   0.07263              -33.44         0.7339          9.477          58.15         -4.983          19.67         -29.34         -13.18          61.17          124.1          70.18
   0.09079              -33.44         0.7394          9.477          58.15         -4.984          19.66         -29.34         -13.18          61.14          124.1          70.18
    0.1089              -33.44         0.7453          9.478          58.15         -4.985          19.66         -29.34         -13.17          61.12          124.1          70.19
    0.1271              -33.44         0.7517          9.478          58.16         -4.986          19.65         -29.34         -13.17          61.09          124.1          70.19
    0.1453              -33.44         0.7585          9.478          58.16         -4.987          19.65         -29.34         -13.16          61.05          124.1           70.2
    0.1634              -33.45         0.7658          9.478          58.16         -4.989          19.64         -29.34         -13.15          61.02          124.1          70.21
    0.1816              -33.45         0.7736          9.478          58.16          -4.99          19.64         -29.34         -13.14          60.98          124.1          70.22
    0.1997              -33.45          0.782          9.478          58.16         -4.992          19.63         -29.34         -13.14          60.94          124.1          70.22
    0.2179              -33.45         0.7911          9.479          58.16         -4.993          19.62         -29.34         -13.13           60.9          124.1          70.23
     0.236              -33.46         0.8009          9.479          58.17         -4.995          19.62         -29.35         -13.12          60.85          124.1          70.24
    0.2542              -33.46         0.8115          9.479          58.17         -4.997          19.61         -29.35         -13.11           60.8          124.1          70.25
    0.2724              -33.46          0.823          9.479          58.17         -4.999           19.6         -29.35         -13.09          60.74          124.1          70.27
    0.2905              -33.47         0.8356           9.48          58.17         -5.001          19.59         -29.35         -13.08          60.68          124.1          70.28
    0.3087              -33.47         0.8492           9.48          58.18         -5.003          19.58         -29.35         -13.07          60.62          124.1          70.29
    0.3268              -33.48         0.8641           9.48          58.18         -5.006          19.57         -29.36         -13.05          60.55          124.1          70.31
     0.345              -33.48         0.8804          9.481          58.18         -5.009          19.56         -29.36         -13.04          60.47          124.1          70.32
    0.3631              -33.49         0.8983          9.481          58.19         -5.012          19.54         -29.36         -13.02          60.38          124.1          70.34
    0.3813              -33.49         0.9179          9.481          58.19         -5.016          19.53         -29.36          -13.0          60.29          124.1          70.36
    0.3995               -33.5         0.9397          9.482           58.2         -5.019          19.51         -29.37         -12.98          60.19          124.1          70.38
    0.4176              -33.51         0.9638          9.482           58.2         -5.024          19.49         -29.37         -12.95          60.07          124.1          70.41
    0.4358              -33.52         0.9906          9.483          58.21         -5.028          19.47         -29.37         -12.92          59.94          124.1          70.43
    0.4539              -33.52           1.02          9.484          58.21         -5.034          19.45         -29.38         -12.89           59.8          124.1          70.46
    0.4721              -33.54          1.054          9.484          58.22          -5.04          19.43         -29.38         -12.86          59.64          124.1           70.5
    0.4902              -33.55          1.092          9.485          58.23         -5.046           19.4         -29.39         -12.82          59.46          124.1          70.53
    0.5084              -33.56          1.134          9.486          58.24         -5.054          19.37          -29.4         -12.78          59.25          124.1          70.58
    0.5266              -33.57          1.183          9.487          58.25         -5.062          19.33          -29.4         -12.73          59.02          124.1          70.63
    0.5447              -33.59          1.238          9.488          58.26         -5.072          19.29         -29.41         -12.67          58.76          124.1          70.68
    0.5629              -33.61          1.301           9.49          58.28         -5.083          19.24         -29.42         -12.61          58.46          124.1          70.75
     0.581              -33.63          1.374          9.491          58.29         -5.096          19.19         -29.43         -12.54          58.11          124.1          70.82
    0.5992              -33.66          1.459          9.493          58.31         -5.111          19.12         -29.44         -12.45           57.7          124.1           70.9
    0.6173              -33.69          1.558          9.496          58.33         -5.129          19.05         -29.46         -12.35          57.22          124.1           71.0
    0.6355              -33.73          1.676          9.498          58.36         -5.149          18.96         -29.48         -12.23          56.66          124.1          71.12
    0.6537              -33.77          1.815          9.501          58.39         -5.174          18.85          -29.5         -12.09           56.0          124.1          71.26
    0.6718              -33.82          1.982          9.505          58.42         -5.203          18.73         -29.52         -11.92           55.2          124.1          71.43
      0.69              -33.88          2.183          9.509          58.47         -5.239          18.58         -29.55         -11.72          54.23          124.1          71.63
    0.7081              -33.96           2.43          9.515          58.52         -5.283          18.39         -29.59         -11.47          53.05          124.1          71.88
    0.7263              -34.05          2.734          9.522          58.59         -5.336          18.16         -29.64         -11.16          51.59          124.1          72.19
    0.7444              -34.17          3.114           9.53          58.67         -5.403          17.88         -29.69         -10.77          49.77          124.1          72.57
    0.7626              -34.32          3.592          9.541          58.77         -5.488          17.52         -29.76         -10.29          47.49          124.1          73.05
    0.7808               -34.5            4.2          9.554          58.91         -5.595          17.06         -29.85         -9.674          44.57          124.2          73.66
    0.7989              -34.74          4.978          9.571          59.08         -5.733          16.48         -29.97         -8.886          40.85          124.2          74.44
    0.8171              -35.05          5.976          9.593          59.29         -5.909          15.73         -30.12         -7.875          36.07          124.2          75.44
    0.8352              -35.44          7.252          9.622          59.57         -6.134          14.77         -30.31         -6.583          29.96          124.3          76.72
    0.8534              -35.93          8.855          9.657          59.92         -6.417          13.56         -30.55         -4.959          22.29          124.3          78.33
    0.8715              -36.53          10.81          9.701          60.34         -6.762          12.09         -30.84          -2.98          12.93          124.4           80.3
